<?xml version="1.0" standalone="no"?>
<!DOCTYPE svg PUBLIC "-//W3C//DTD SVG 20010904//EN"
 "http://www.w3.org/TR/2001/REC-SVG-20010904/DTD/svg10.dtd">
<svg version="1.0" xmlns="http://www.w3.org/2000/svg"
 width="700.000000pt" height="700.000000pt" viewBox="0 0 700.000000 700.000000"
 preserveAspectRatio="xMidYMid meet">
<metadata>
Created by potrace 1.14, written by Peter Selinger 2001-2017
</metadata>
<g transform="translate(0.000000,700.000000) scale(0.100000,-0.100000)"
fill="#000000" stroke="none">
<path d="M1547 6562 c-26 -125 -109 -513 -183 -862 -74 -349 -151 -709 -170
-800 -19 -91 -50 -237 -69 -325 -19 -88 -61 -288 -94 -445 -33 -157 -81 -382
-105 -500 -25 -118 -56 -267 -70 -330 -24 -110 -29 -137 -41 -197 -3 -16 -10
-44 -15 -63 -5 -19 -12 -51 -15 -70 -3 -19 -8 -42 -10 -50 -2 -8 -7 -31 -10
-50 -3 -19 -10 -51 -15 -70 -5 -19 -27 -123 -49 -230 -23 -107 -43 -204 -45
-215 -3 -11 -11 -52 -20 -90 -8 -39 -17 -82 -20 -95 -2 -14 -16 -79 -31 -145
-14 -66 -30 -140 -35 -165 -5 -25 -22 -106 -39 -180 -16 -74 -32 -148 -35
-165 -3 -16 -8 -39 -10 -50 -3 -11 -26 -119 -51 -240 -25 -121 -48 -228 -51
-237 -3 -10 -8 -30 -10 -45 -3 -16 -21 -102 -41 -193 -19 -91 -37 -175 -39
-188 -9 -45 -55 -257 -60 -275 -5 -17 71 -18 1843 -14 2056 3 1906 -2 2188 72
229 59 398 129 613 253 444 254 826 657 1047 1107 109 221 161 385 229 720 3
11 12 54 21 95 9 41 18 82 20 90 4 19 54 258 59 285 3 11 18 83 35 160 17 77
33 151 36 164 4 21 10 54 29 146 3 11 16 72 30 135 14 63 27 126 30 140 2 14
12 59 21 100 9 41 18 86 21 100 2 14 7 36 10 50 3 14 8 36 11 50 2 14 9 45 14
70 6 25 13 54 15 65 5 23 23 109 30 145 3 14 10 45 15 70 6 25 12 54 15 65 20
102 59 285 74 350 10 44 21 96 24 115 3 19 10 58 15 85 36 189 34 468 -5 661
-36 181 -77 285 -199 515 -5 11 -13 19 -17 19 -5 0 -8 5 -8 11 0 21 -128 175
-212 254 -246 234 -566 375 -938 414 -47 5 -895 9 -1885 10 l-1800 1 -48 -228z
m2453 -1646 c143 -20 245 -48 345 -97 355 -172 472 -531 360 -1099 -9 -41 -17
-85 -20 -98 -2 -13 -6 -31 -9 -40 -3 -9 -7 -28 -10 -42 -10 -54 -117 -534
-121 -540 -2 -3 -6 -24 -10 -48 -31 -210 -148 -448 -296 -607 -144 -153 -309
-257 -508 -319 -154 -49 -211 -52 -851 -51 l-595 0 1 35 c1 19 11 76 22 125
12 50 23 101 26 115 2 14 16 81 31 150 15 69 29 136 31 150 3 14 7 33 10 42 3
10 7 30 10 45 3 16 25 120 49 233 24 113 46 216 48 230 3 14 11 48 17 75 6 28
14 61 16 75 3 14 23 108 45 209 21 101 41 193 44 205 2 11 6 32 9 46 3 14 17
81 32 150 14 69 29 141 34 160 5 19 11 49 14 65 3 17 23 113 45 215 22 102 42
196 45 210 30 149 50 237 58 246 4 6 51 23 103 38 91 26 109 31 165 42 13 3
60 13 105 24 68 15 140 28 255 45 14 2 59 7 100 10 41 3 75 7 77 9 5 5 278 -2
323 -8z"/>
</g>
</svg>
