<svg width="499.99999999999994" height="499.99999999999994" xmlns="http://www.w3.org/2000/svg" version="1.1" xml:space="preserve">
 <g>
  <title>Layer 1</title>
  <g id="svg_1">
   <g id="圖層_2" data-name="圖層 2" xmlns="http://www.w3.org/2000/svg">
    <path stroke="null" d="m408.37229,180.02461c-30.15053,-10.95906 -63.97156,-4.86341 -87.59385,17.13337a77.34267,77.34267 0 0 0 -18.96862,85.82414c15.04905,36.54769 54.21852,50.33828 91.343,46.47114c5.24357,-0.53747 2.12365,-9.43843 -2.62179,-8.94029c-28.83964,3.00194 -61.61195,-4.94207 -77.34267,-31.46142c-14.59023,-24.71033 -11.18191,-56.22418 7.20991,-77.95878a77.97189,77.97189 0 0 1 73.56729,-26.21785c28.52502,5.24357 52.88141,25.71971 60.5108,54.02189c8.57324,31.82847 -9.24179,67.32745 -42.34183,75.02239c-5.1387,1.20602 -2.03188,10.02833 2.62179,8.94029c31.21235,-7.26235 51.57052,-37.50464 49.90568,-68.96606c-1.79592,-33.44087 -25.20847,-62.56891 -56.28973,-73.8688z" fill="#fd018f" data-original="#000000" id="svg_2"/>
    <path d="m243.33,174.09091a2.55,2.55 0 0 0 2.11,0.7a1.76,1.76 0 0 0 1.48,-0.74c9.31,-6.52 20.53,-17.23 16.74,-29.88c-1.54,-5.15 -6,-9.76 -11.78,-9.32c-4,0.3 -7.51,2.65 -10.15,5.71a11.58,11.58 0 0 0 -7.15,-4.65c-6.28,-1.26 -11.85,3.36 -13.69,9.14c-4.89,15.37 11.11,23.75 22.44,29.04zm-15.33,-28.31c2.22,-3.06 10.71,-5.46 10.05,1c-0.28,2.78 4.07,7.17 5.8,3.25c1.48,-3.37 4,-6.5 7.62,-7.8c5.94,-2.14 7.34,3.75 6.27,8.06c-1.91,7.73 -7.58,12.73 -13.83,17.13c-5.32,-2.35 -11.49,-4.65 -15,-9.37c-2.62,-3.6 -3.74,-8.41 -0.91,-12.27z" fill="#fd018f" data-original="#000000" id="svg_3"/>
    <path d="m493.62,229.09091c-4.5,-26.4 -16.66,-51.29 -37.56,-68.51c-19.39,-16 -45.61,-24.66 -70.35,-27.46c-24.54,-2.77 -50.39,0.67 -71.91,13.36c-22.13,13.06 -40.58,35.39 -50.08,59.18a118.63,118.63 0 0 0 -5.16,16.43a24.56,24.56 0 0 0 -10.23,7.54a19,19 0 0 0 -4.59,-6.28c-4.22,-27.06 -18.06,-52.09 -40.32,-68.48c-21,-15.44 -48.63,-23.56 -74.43,-25c-25.63,-1.41 -52.19,4.31 -72.83,20.16c-20.22,15.51 -36.6,37.24 -44.9,61.41c-14.39,41.99 -7.38,95.65 27.05,125.97c26,22.95 62.8,30.13 96.59,28.88c41.07,-1.53 82.16,-19.84 98.74,-60a132.19,132.19 0 0 0 6,-18.64c2.09,1.4 4.2,2.81 6.33,4.27a2.66,2.66 0 0 0 2.69,0.46c0.12,0 0.23,-0.06 0.35,-0.11c3.53,-1.59 7.13,-3.16 10.68,-4.84c4.62,18.42 13.67,35.61 27.54,48.77c12.83,12.18 28.7,20.62 45.59,25.66c27.46,8.2 60.36,10.07 87.93,1c25.41,-8.34 48.8,-23.16 61.08,-47.65c12.89,-25.72 16.6,-57.89 11.79,-86.12zm-277.34,93.55a90.85,90.85 0 0 1 -30.41,24.38c-13.1,6.6 -26.84,10.14 -41.36,11.64c-30.26,3.13 -63.65,-0.8 -90,-16.85c-36.07,-22 -48.57,-65.35 -42.62,-105.67c3.57,-24.22 14.85,-46.35 31.33,-64.35c17,-18.57 37.72,-30.7 62.84,-34.13c27.73,-3.78 56.81,2.23 81.68,14.77c26.38,13.31 44,38.64 49.4,67.31c-0.15,-0.05 -0.29,-0.11 -0.45,-0.15c-10.95,-3 -23.87,2.47 -28.71,12.92c-5.4,11.64 -1.17,22.63 5.83,32.51c5.63,7.94 12.61,13.54 20.13,18.78c-3.39,13.96 -8.63,27.51 -17.66,38.84zm30.72,-37.33c-8,-5.33 -16.83,-10 -23.4,-17.16c-6.34,-6.9 -13.66,-16.54 -11.73,-26.44a20.13,20.13 0 0 1 18.37,-16.16c9.56,-0.54 13.7,5.37 14.4,13.33a14.84,14.84 0 0 0 0.11,3.25c0.53,3.77 6,5.58 6.11,0.76c0,-0.82 0,-1.64 -0.05,-2.47c0.77,-7.36 9.54,-12.76 16.48,-13c9.89,-0.36 17.08,9.44 17.36,18.61c0.67,21.69 -20.86,31.72 -37.65,39.28zm234.69,12.78c-4.37,12.87 -11,24.71 -20.9,34.16c-9.45,9.05 -21.08,15.55 -33.13,20.48c-25.77,10.54 -55.41,11.11 -82.44,5.53c-17.79,-3.67 -35.09,-10.74 -49.28,-22.23c-16.13,-13.08 -26.18,-31.29 -30.9,-51.31c6.63,-3.56 12.76,-7.86 17.41,-14c7.41,-9.74 11,-22.65 5.92,-34.27c-3.9,-9 -12.68,-16.4 -22.7,-16c6.48,-22.69 20.15,-42.14 37.89,-57.76c18.28,-16.09 42.24,-23.55 66.37,-23.71a144.67,144.67 0 0 1 69,17.24c22.39,12.16 37.81,33.26 45.1,57.43c8.23,27.37 6.8,57.56 -2.34,84.44z" fill="#fd018f" data-original="#000000" id="svg_5"/>
    <path transform="rotate(22.1286 128.199 249.679)" stroke="null" d="m155.99163,177.70773c-29.98488,-10.89885 -63.6201,-4.83669 -87.1126,17.03924a76.91774,76.91774 0 0 0 -18.8644,85.35262c14.96637,36.34689 53.92064,50.06172 90.84116,46.21583c5.21476,-0.53451 2.11198,-9.38657 -2.60738,-8.89117c-28.68119,2.98545 -61.27346,-4.91491 -76.91774,-31.28857c-14.51008,-24.57457 -11.12048,-55.91529 7.1703,-77.53048a77.54351,77.54351 0 0 1 73.16311,-26.07381c28.36831,5.21476 52.59088,25.57841 60.17836,53.72509c8.52614,31.65361 -9.19102,66.95755 -42.1092,74.61021c-5.11047,1.1994 -2.02072,9.97323 2.60738,8.89117c31.04087,-7.22245 51.28719,-37.29859 49.6315,-68.58716c-1.78606,-33.25715 -25.06997,-62.22515 -55.98047,-73.46296z" fill="#fd018f" data-original="#000000" id="svg_4"/>
    <polyline stroke-linecap="round" id="svg_6" points="148.18182373046875,217.4545412659645 148.18182373046875,216.54545313119888 148.18182373046875,216.54545313119888 147.27272033691406,216.54545313119888 147.27272033691406,215.63636499643326 146.36363220214844,214.72727686166763 145.4545440673828,214.72727686166763 144.5454559326172,214.72727686166763 143.63636779785156,214.72727686166763 141.81817626953125,212.90908533334732 140,212.90908533334732 135.4545440673828,211.09090906381607 132.72727966308594,210.18182092905045 126.36363983154297,208.36362940073013 122.7272720336914,207.4545412659645 120,207.4545412659645 116.36363983154297,207.4545412659645 112.7272720336914,207.4545412659645 108.18181610107422,207.4545412659645 104.54545593261719,207.4545412659645 103.63636016845703,208.36362940073013 101.81818389892578,209.27273279428482 100.90908813476562,209.27273279428482 100.90908813476562,211.09090906381607 99.09091186523438,211.9999971985817 99.09091186523438,212.90908533334732 99.09091186523438,213.818188726902 99.09091186523438,214.72727686166763 99.09091186523438,215.63636499643326 99.09091186523438,216.54545313119888 99.09091186523438,218.36362940073013 100,218.36362940073013 100,220.18182092905045 100.90908813476562,221.09090906381607 100.90908813476562,221.9999971985817 100.90908813476562,222.90908533334732 101.81818389892578,224.72727686166763 103.63636016845703,226.54545313119888 104.54545593261719,229.27273279428482 108.18181610107422,232.90908533334732 112.7272720336914,238.36362940073013 116.36363983154297,240.18182092905045 119.09091186523438,241.9999971985817 125.45454406738281,244.72727686166763 129.09091186523438,245.63636499643326 133.63636779785156,247.4545412659645 138.18182373046875,248.36362940073013 140.90908813476562,250.18182092905045 145.4545440673828,251.09090906381607 147.27272033691406,251.9999971985817 148.18182373046875,252.90908533334732 149.09091186523438,253.818188726902 150.90908813476562,253.818188726902 150.90908813476562,254.72727686166763 151.81817626953125,254.72727686166763 151.81817626953125,256.54546838998795 151.81817626953125,258.3636446595192 151.81817626953125,258.3636446595192 151.81817626953125,259.2727327942848 151.81817626953125,261.9999971985817 150,264.72726160287857 142.72727966308594,271.9999971985817 136.36363220214844,275.6363497376442 129.09091186523438,279.2727327942848 116.36363983154297,283.81817346811295 110.90908813476562,286.54546838998795 105.45454406738281,287.45455652475357 104.54545593261719,288.3636446595192 103.63636016845703,288.3636446595192 102.7272720336914,288.3636446595192 " opacity="NaN" stroke="null" fill="none"/>
    <polyline stroke-linecap="round" id="svg_7" points="388.18182373046875,272.9090853333473 388.18182373046875,271.9999971985817 388.18182373046875,271.09090906381607 388.18182373046875,270.18182092905045 388.18182373046875,269.2727327942848 388.18182373046875,269.2727327942848 387.2727355957031,268.3636446595192 385.4545593261719,266.54546838998795 380.9090881347656,261.9999971985817 374.5454406738281,258.3636446595192 362.7272644042969,251.09090906381607 336.3636474609375,232.90908533334732 325.4545593261719,224.72727686166763 315.4545593261719,217.4545412659645 311.81817626953125,215.63636499643326 309.0909118652344,214.72727686166763 306.3636474609375,214.72727686166763 305.4545593261719,214.72727686166763 304.5454406738281,214.72727686166763 303.6363525390625,218.36362940073013 303.6363525390625,221.9999971985817 303.6363525390625,227.4545412659645 303.6363525390625,229.27273279428482 303.6363525390625,232.90908533334732 304.5454406738281,236.54545313119888 305.4545593261719,240.18182092905045 308.18182373046875,243.818188726902 312.7272644042969,252.90908533334732 318.18182373046875,259.2727327942848 " opacity="NaN" stroke="null" fill="none"/>
    <polyline stroke-linecap="round" id="svg_9" points="106.36363983154297,63.81818109750748 106.36363983154297,64.7272692322731 106.36363983154297,65.63636499643326 106.36363983154297,65.63636499643326 106.36363983154297,66.54545313119888 106.36363983154297,69.27272516489029 107.2727279663086,73.81818109750748 108.18181610107422,83.81818109750748 110.90908813476562,107.45454889535904 111.81818389892578,125.63636499643326 111.81818389892578,154.72727686166763 112.7272720336914,171.09090906381607 112.7272720336914,183.818188726902 113.63636016845703,203.818188726902 113.63636016845703,213.818188726902 114.54545593261719,221.9999971985817 115.45454406738281,236.54545313119888 116.36363983154297,246.54545313119888 117.2727279663086,252.90908533334732 118.18181610107422,256.54546838998795 119.09091186523438,257.45455652475357 119.09091186523438,257.45455652475357 120,257.45455652475357 120.90908813476562,256.54546838998795 121.81818389892578,255.6363497376442 123.63636016845703,252.90908533334732 130,242.90908533334732 133.63636779785156,236.54545313119888 136.36363220214844,231.9999971985817 138.18182373046875,228.36362940073013 138.18182373046875,226.54545313119888 " opacity="NaN" stroke="null" fill="none"/>
   </g>
  </g>
  <path stroke="null" d="m152.72728,255.63637c-152.72728,-255.63637 -152.72728,-255.63637 -152.72728,-255.63637l151.81818,255.63637l0,0l-0.90909,0" id="svg_10" fill="none"/>
  <path id="svg_11" d="m155.45455,222.90909c-29.09091,-15.45455 -18.18182,-44.54545 -34.54545,-14.54545" opacity="NaN" stroke="null" fill="none"/>
  <text transform="rotate(-7.12603 128.75 253.455)" xml:space="preserve" text-anchor="start" font-family="'Catamaran'" font-size="105" stroke-width="0" id="svg_12" y="282.90909" x="101.81818" stroke="null" fill="#fd018f">S</text>
  <text transform="rotate(9.64334 380.909 250.545)" xml:space="preserve" text-anchor="start" font-family="'Asap'" font-size="105" stroke-width="0" id="svg_13" y="288.36364" x="355.45455" stroke="null" fill="#fd018f">L</text>
  <line transform="rotate(-11.5487 371.364 236.545)" stroke="#fd018f" stroke-width="6" id="svg_18" y2="244.15841" x2="392.25364" y1="228.93248" x1="350.47362" fill="#fd018f"/>
  <line transform="rotate(-11.5487 367.728 247.454)" stroke="#fd018f" stroke-width="6" id="svg_19" y2="255.0675" x2="388.61728" y1="239.84157" x1="346.83726" fill="#fd018f"/>
 </g>

</svg>