<svg
    xmlns="http://www.w3.org/2000/svg"
    version="1.1"
    xmlns:xlink="http://www.w3.org/1999/xlink"
    xmlns:svgjs="http://svgjs.com/svgjs"
    width="512"
    height="512"
    x="0"
    y="0"
    viewBox="0 0 500 500"
    style="enable-background:new 0 0 512 512"
    xml:space="preserve"
    class=""
><g><g xmlns="http://www.w3.org/2000/svg" id="圖層_2" data-name="圖層 2"><path
                d="M396.87,136.79a105.65,105.65,0,0,0-12.35-14A132.55,132.55,0,0,0,348.44,70c9-14.52,7.47-34.73-4.82-47.08C331,10.27,309.75,8.52,295.35,19.17a3.28,3.28,0,0,0-1,3.56A21.45,21.45,0,0,0,283.65,16a19,19,0,0,0-14.86,2.38C260.32,6.8,244.89.83,231,5.81c-14.29,5.13-22.81,20.89-20.52,35.66-4.28,1.28-8.53,2.75-12.71,4.42a163.15,163.15,0,0,0-58.06,39.66A111.69,111.69,0,0,0,114.35,130a2.9,2.9,0,0,0-.68.57c-17.08,20.08-26.11,43.62-31.24,69.21-4.85,24.18-6,48.11-.18,72.18,10.68,44.31,42.09,82.32,84.21,100.38,22.43,9.61,47.1,14.45,71.4,15.72s48-2.29,71.53-8.71,46.48-16.2,65.06-32.44c18.93-16.54,31-38.52,38.26-62.35C427.3,236.79,427.32,178.56,396.87,136.79Zm-98-111.32c11.52-8.52,28.6-8.87,39.67.76s12.55,27.32,4.67,39.34c-3.21-2.56-6.52-5-10-7.21A141,141,0,0,0,301.05,42.8a29.56,29.56,0,0,0-4.49-17.08A2.16,2.16,0,0,0,298.84,25.47Zm-15.52-2.82c8,2.14,11.89,10.51,11.61,18.26a147.27,147.27,0,0,0-29.28-5.29C265.58,27.12,275.17,20.47,283.32,22.65ZM232,13.12c11.12-5,25.36-1.08,32.35,8.88a17.77,17.77,0,0,0-4.8,13.26,152,152,0,0,0-43.15,4.6C215.71,28.86,221.69,17.77,232,13.12ZM93,287.79c-4.2-11.73-7.48-24.33-8.5-36.77-1.06-12.94.13-26,2.15-38.84,3.76-23.82,10.57-46.46,24-66.16-.11.65-.23,1.3-.33,1.95-3.65,24.88-1.34,49.38,11.12,71.52,10.71,19,27.28,36.49,47.78,44.91-7.1,11.78-11.26,25.66-14.67,38.77-4.38,16.85-7.43,34.77-6.06,52.25C123.42,339.48,103.16,316.08,93,287.79Zm92.11,84.49a150.45,150.45,0,0,1-30.25-13,.22.22,0,0,1,0-.08c-1.89-17.41,1.07-35.25,5.34-52.11,3.55-14,8-29.51,16.41-41.52a2.52,2.52,0,0,0,.39-.85,4,4,0,0,0-1.95-4.91,2.61,2.61,0,0,0-1.35-.52c-18.77-6.68-34.13-21.39-44.57-38.07-11.35-18.1-15.29-37.4-14-58.58,1.28-22,7.71-43.91,20.92-61.75,13.07-17.67,31.39-31.94,50.79-42,39.72-20.68,87.4-22.75,128.13-3.59,29,13.65,52.44,38.51,63.68,68.26a3.32,3.32,0,0,0,1,2.67,111,111,0,0,1,6.13,30.59c2.45,44.95-27.81,89.87-72.26,100.69-3.67.89-1.81,6.87,1.38,6.89a5,5,0,0,0,.37.57A227,227,0,0,1,356.5,351.4a154.75,154.75,0,0,1-34,16.45C278.06,383.31,230.45,386.09,185.14,372.28ZM411.07,265.12c-5,23.28-13.9,46.44-29.61,64.64a116.05,116.05,0,0,1-19.79,18.1,236.13,236.13,0,0,0-40.83-85.11c38.55-11.93,67-48.85,70.68-88.91a114.57,114.57,0,0,0-3-38.22C417.76,170.83,420.4,221.57,411.07,265.12Z"
                fill="#fd018f"
                data-original="#000000"
                class=""
            /><path
                d="M206.29,150.18c.48-4.26-6.45-8.12-7-2.89a92.74,92.74,0,0,0,1.6,30.27c1,4.84,7.91,4.13,6.75-1.19A80.59,80.59,0,0,1,206.29,150.18Z"
                fill="#fd018f"
                data-original="#000000"
                class=""
            /><path
                d="M285.57,148.27V176.4c0,4.61,7.13,6.36,7.13.89V149.16C292.7,144.56,285.57,142.8,285.57,148.27Z"
                fill="#fd018f"
                data-original="#000000"
                class=""
            /><path
                d="M263,215.3c-9.91,8.3-25.87,7.95-35.08-1.27-3.31-3.3-6.94,1.36-3.93,4.37,11.79,11.8,30.85,13,43.72,2.23C270.49,218.3,266.09,212.71,263,215.3Z"
                fill="#fd018f"
                data-original="#000000"
                class=""
            /><path
                d="M178.46,394.43c-21.88-7.58-47.55-2.47-62,16.55S105.23,456.8,119.22,475c7.4,9.64,17.7,15.86,29.4,18.77,11.28,2.81,24.41,3.57,35.21-1.42l.08,0c20.36-7.61,30.74-27.15,31.65-48.33C216.59,420.12,200.35,402,178.46,394.43Zm2.62,91.41-.14.06a2.49,2.49,0,0,0-.6.2c-15.36,7.09-38,2.28-50.55-8.38-16-13.58-21.91-39-11.2-57.5,9.87-17.09,30.61-24.86,49.57-21.7,19.22,3.2,39.17,16.56,41.15,37.3C211.27,456.37,201.33,478.68,181.08,485.84Z"
                fill="#fd018f"
                data-original="#000000"
                class=""
            /><path
                d="M168.31,438.29q8.25-7.17,16.87-13.92c3-2.34-.56-8.6-3.49-6.3q-9.66,7.55-18.87,15.61l-19-15.95c-3.59-3-5.55,3.1-2.59,5.59l17.09,14.34q-12,10.79-23.2,22.46c-2.53,2.65,1.92,8.24,4.71,5.33q11.53-12.06,24-23.18l22.48,18.86c3.59,3,5.55-3.1,2.58-5.59Z"
                fill="#fd018f"
                data-original="#000000"
                class=""
            /><path
                d="M359.42,394.43c-21.88-7.58-47.56-2.47-62,16.55S286.18,456.8,300.18,475c7.4,9.64,17.69,15.86,29.39,18.77,11.29,2.81,24.42,3.57,35.22-1.42,0,0,0,0,0,0,20.34-7.44,36.55-25.69,35.19-48.34C398.64,420.88,380.66,401.79,359.42,394.43ZM362,485.84l-.13.06a2.35,2.35,0,0,0-.6.2c-15.37,7.09-38,2.28-50.56-8.38-16.05-13.58-21.9-39-11.2-57.5,21.52-37.23,82.35-24.43,93.06,15C398.74,457.87,382.86,478.53,362,485.84Z"
                fill="#fd018f"
                data-original="#000000"
                class=""
            /><path
                d="M359.56,419c-7.74.76-14.54,5.46-19.4,11.42-3.29-5.33-8.42-9.51-14.81-10.45-8-1.16-16.41,4.05-18.42,12-2.27,9,4.41,18.66,9.82,25.3a62.44,62.44,0,0,0,22.67,17.24c1.15,1.16,2.85,1.71,4.29.54,8.61-7,18.44-13.6,25.87-21.93,5.5-6.17,8.68-14.07,6.29-22.29C373.7,423.31,367.49,418.18,359.56,419Zm10.6,19.72c-1.64,6.43-7.12,11.25-12,15.35-5.7,4.79-11.53,9.44-17.32,14.13-11.47-5.14-21.71-14.3-26.8-26-3.06-7,.64-14.26,8.47-15.43,6.77-1,12.52,4.34,14.57,10.36.84,2.46,4,4.21,5.67,1.5,3.81-6.21,10.5-11.77,17.94-12.75C368.35,424.86,371.88,432,370.16,438.68Z"
                fill="#fd018f"
                data-original="#000000"
                class=""
            /></g></g></svg>
