<svg
    xmlns="http://www.w3.org/2000/svg"
    version="1.1"
    xmlns:xlink="http://www.w3.org/1999/xlink"
    xmlns:svgjs="http://svgjs.com/svgjs"
    width="512"
    height="512"
    x="0"
    y="0"
    viewBox="0 0 500 500"
    style="enable-background:new 0 0 512 512"
    xml:space="preserve"
    class=""
><g><g xmlns="http://www.w3.org/2000/svg" id="圖層_2" data-name="圖層 2"><path
                transform="translate(30, 0)"
                d="m103.86 102.78c.16-2.56-1-5.29-3.5-6.31-2.09-.83-4.88.29-5 2.8a120.81 120.81 0 0 0 .43 21.43c.28 2.45 2 5.09 4.66 5.39a3.74 3.74 0 0 0 4-4.31 105.79 105.79 0 0 1 -.59-19z"
                fill="#fd018f"
                data-original="#000000"
                class=""
            /><path
                transform="translate(30, 0)"
                d="m161.67 101a6.08 6.08 0 0 0 -3.5-6.3 3.59 3.59 0 0 0 -5 2.79 66.93 66.93 0 0 0 1.51 22.74c1.4 5.84 9.74 5 8.2-1.44a52.71 52.71 0 0 1 -1.21-17.79z"
                fill="#fd018f"
                data-original="#000000"
                class=""
            /><path
                d="m357.85 135.09-3 17.38c-.9 5.18 7.44 9.84 8.54 3.51q1.5-8.68 3-17.38c.9-5.18-7.39-9.84-8.54-3.51z"
                fill="#fd018f"
                data-original="#000000"
                class=""
            /><path
                d="m402.39 139.6q-2 9.61-3.88 19.22c-1 5.17 7.28 9.81 8.55 3.51l3.87-19.22c1.07-5.17-7.27-9.81-8.54-3.51z"
                fill="#fd018f"
                data-original="#000000"
                class=""
            /><path
                d="m492.1 104.22c2.65-5.76 6-14.85 3.34-21.1-2.82-6.64-12-8.28-18.3-9.47a61.59 61.59 0 0 0 -21.79-.08 16.65 16.65 0 0 0 -18.85-9.52 64.36 64.36 0 0 0 -9.86-12.67c-3.37-3.32-7.39-7.27-12.31-7.87-4.77-.58-7.92 2.6-10.2 6.38-3.38 5.59-6.34 11.48-9.49 17.21a3.73 3.73 0 0 0 -.3 2.77 81.44 81.44 0 0 0 -12.3.63c-29.32 3.74-57.54 25.79-71.74 51.17-15.39 27.49-10.49 63.5 9.62 87.22-17.68 12.19-31.72 28.84-42.28 47.47a179.84 179.84 0 0 0 -17.36-25.44c-11.55-14-26-25.28-43-31 22.17-15.08 38.19-39 42.77-65.78 6.31-36.77-11.26-75-41.09-96.75-17.32-12.65-37.96-18.1-59.26-19.08-22.11-1-44.72 1.28-65.88 7.87-39.18 12.21-73.82 41.33-83.07 82.66-8.17 36.38 10.05 77.29 44.28 92-19.32 10.16-32.86 30.24-41.18 49.95-11.16 26.47-16.85 61.21 2.54 85.31 8.75 10.92 21.75 18.13 35.8 17.66-.18 24.67-.35 49.43-2.49 73.95-.59 6.67-1.58 14-5.76 19.49-3.26 4.28-5.36 7.21-4.57 12.93 1.63 12.06 12.5 16.51 23.63 16.13 12.3-.41 26.37-3.74 34.83-13.29 5.19-5.86 6.14-12.17 7-19.59 2.58-21 4.1-42.34 9.72-62.82 1.29-4.72 2.7-10.6 5.73-14.53 4-5.21 10.36-.87 12.94 3.55 5.34 9.12 7.5 20.58 9.51 30.82 2.43 12.4 4.95 26 4.32 38.73-.47 9.54-12.62 18.91-4.72 28.49 5.59 6.76 16.6 8.75 24.85 8.89 10.2.17 21.24-2 29.81-7.79 9.27-6.28 11.81-16.1 12.43-26.81.79-13.61-.27-27.38-.38-41q-.42-52 3-104c.45-7 1-14 1.54-21.05 14.82 9.94 26.11 27.48 32.24 43.31 3.18 8.22 6.38 17.73 14 23a17.89 17.89 0 0 0 5.86 2.65c7.55 5.33 17 2.8 23.89-2.66 9-7.18 13.05-19.21 16.61-29.77a124.5 124.5 0 0 1 10.53-23.05c1.25-2.15 2.59-4.56 4-6.95-1.95 6.48-4.25 12.86-6.5 19.2-4.85 13.66-9.9 27.26-14 41.17-3.72 12.61-6.83 25.72-6.67 38.94.13 10.59 11 8.93 18.74 8.7 2.24-.06 4.5-.16 6.75-.06.3 0 .63.07 1 .11-.11 1.57.62 3.89.78 5.21.24 2 .51 4 .74 6 .5 4.31.88 8.63 1.08 13a97.19 97.19 0 0 1 -1.63 24.83 48 48 0 0 1 -3.32 10.19c-1.45 3.12-3.76 5.82-4.89 9.07-4.69 13.48 7.79 17.63 18.41 18.27 10.84.66 22.24.22 31.2-6.67 3.6-2.77 4.81-5 5.77-9.54 1.52-7.25 1.71-14.82 1.83-22.2.25-15.66-.35-31.2 1.47-46.77h14.18c.51 6 .94 11.9 1.49 17.84.83 8.95 2.35 17.85 2.95 26.81.49 7.19.62 14.42.72 21.62 0 1.48.11 3 .08 4.48 0-.88-.52 1.42-.77 2.43a27.54 27.54 0 0 0 -.89 5.26c-.46 8.69 7.47 11.09 14.67 11.45a94.49 94.49 0 0 0 23.39-1.33c6.74-1.37 14.06-4 18.47-9.58 4-5.05 4.17-11.53 4-17.68-.33-9.81-2.13-19.59-4-29.2-2.12-10.76-5-21.12-4.78-32.1h20.87c2.34 0 3.5-1.51 3.52-3.8 0-4.57-1.13-9.26-2-13.71-1.42-7.31-3.06-14.58-4.71-21.84-2.78-12.26-6-24.52-8.26-36.91 14.14-2.45 27-11.4 31.1-25.88 6.84-24.2-9.76-45-27.06-60.07 16.1-10.81 27.05-30 31.54-48.52 4.84-19.92 2-41.49-7.15-59.77a48.24 48.24 0 0 0 13.27-17.12zm-46.56-31.08a7 7 0 0 1 3.46 3.86 5.57 5.57 0 0 0 .55 3.24 11.83 11.83 0 0 1 -1.78 5.9 3.56 3.56 0 0 0 -.39.9 110.2 110.2 0 0 0 -14.51-8 5.94 5.94 0 0 0 -.21-.83c-1-2.89 3.26-5.1 5.43-5.68a10.62 10.62 0 0 1 7.45.61zm-37.79-12.2c1.59-2.91 3.35-8.43 7-8.6 3.4-.15 7.15 4.52 9.28 6.87a52.81 52.81 0 0 1 5.73 7.61 10.55 10.55 0 0 0 -5 8.9 99.42 99.42 0 0 0 -22.25-5.29zm-148.9 269.74c-4.56-6.95-6.44-15.42-10.14-22.82-8.78-17.56-23.11-36.08-41.41-44.31-5.15-2.32-5.58 6.13-1.37 8l.18.09q-3.8 47.19-4.57 94.56-.37 24.79.09 49.59c.22 11.35 1.89 23.91-1.5 34.95-3 9.73-13.08 14.13-22.35 16.05-9.71 2-21.22 1.94-29.67-3.87-1-.66-.69 0-.76-1-.15-2 1-4.07 1.94-5.75 1.61-2.76 3.42-5 4.34-8.14a34.93 34.93 0 0 0 1.11-10.78c-.28-12-2.12-24.19-4.34-36-1.94-10.33-4.33-20.75-8.51-30.43-3.35-7.73-9.74-16.41-19.26-15.92-10.53.55-13.55 14.87-15.76 23.08a253.94 253.94 0 0 0 -6 31.91c-1.26 9.32-2.22 18.68-3.32 28-.89 7.55-1 13.35-6.15 18.87-4.28 4.57-10.21 7.39-16.26 8.75-6.48 1.45-13.69 3-20.29 1.6-4.64-1-10.47-4.62-7.59-10.39 1.1-2.2 3.42-4 4.7-6.2a36.68 36.68 0 0 0 3.58-9.22c1.72-6.7 1.92-13.72 2.28-20.58q.66-12.46 1-24.95c.54-17.51.76-35 1-52.54.48-34.89 1-69.84 4.44-104.6.45-4.56-7-8.7-7.54-3.09-3.17 31.69-3.9 63.57-4.38 95.4-.07 4.68-.12 9.38-.16 14.07-.08 0-.15 0-.23 0-15.52 1.47-29.48-9.21-35.91-22.78-7.71-16.28-5.06-35.75-.29-52.45 7.44-26 24.84-56.56 52.42-64.87 1.7.11 2.53-1 2.66-2.52.69-2.7-1.37-6.46-4.23-6.21-34.05-7.55-54.29-44.18-49.54-77.53 5.37-37.65 34.88-66.65 69.06-80.32 18.6-7.44 38.78-10.84 58.74-11.53 20.51-.71 41.82 1.26 60.27 10.9 29.91 15.64 50 49.25 48.56 83.11-1.38 31.61-21.17 61.19-48.69 76.26a2.18 2.18 0 0 0 -1.21.66 86 86 0 0 1 -15.79 6.44c-4.83 1.43-1.85 9.82 2.53 8.52a94.4 94.4 0 0 0 17.07-6.94c34.72 6.62 56.12 37.92 70.92 67.52 8.51 17 19.18 40.58 3.75 57.05-6.72 7.14-17.49 9.4-23.42.36zm62.95 59.87c-.04.03-.07.03 0 0zm.25 0-.08-.11c.48-.07.3.01.08.07zm158.26-225.23c-1.8 28.92-22.32 62.71-53.83 64.51-4.92.28-2 8.78 2.53 8.52a49.22 49.22 0 0 0 18.5-4.79c14.11 11.55 29.43 26.94 27.59 46.76-1.57 17-17.34 27.16-33.46 27.39-17.39.25-32.31-11.33-42.58-24.37-5.28-6.7-11.41-15.45-10.82-24.43s8.24-16.48 17.39-12.92 13.48 12.94 18.05 20.78c4.46 7.67 9.51 14.56 17.53 18.75 5 2.6 5.42-5.91 1.36-8-9.34-4.89-13-15.95-18.49-24.29-5.22-7.95-13.48-16.11-23.53-16.75-9.53-.61-16.8 6.53-19.12 15.32-2.77 10.45 1.73 21.08 7.43 29.7 11.13 16.81 28.34 32.73 49.33 34.62a44.93 44.93 0 0 0 4.78.18c2.19 11.78 5.19 23.44 7.85 35.11 1.65 7.26 3.3 14.52 4.77 21.82.66 3.28 1.47 6.69 1.85 10.08h-20.44c-1.61 0-3.35.89-3.48 2.73-1.19 17.32 4.39 33.6 7 50.55 1.07 7 2.28 14.52 1.47 21.64-.67 5.89-4.68 9.36-10 11.58-6.65 2.79-14.34 3.43-21.47 3.53-3.13.05-6.27 0-9.39-.27-.73-.06-3.86 0-4.25-.53s.73-4.13.92-4.82c1-3.49.7-6.9.65-10.55-.1-6.56-.24-13.14-.69-19.69-.6-9-2.12-17.86-2.95-26.81-.7-7.53-1.19-15.08-1.93-22.6-.19-2-1.82-4.76-4.11-4.76h-21a3.21 3.21 0 0 0 -3.48 2.73c-1.77 13.07-2 26.24-1.91 39.41.06 6.86.13 13.74-.3 20.59-.26 4.05-.07 10.94-1.92 14.4-1.37 2.55-5.54 4.53-8 5.63-5 2.28-10.52 2.59-16 2.58-4.83 0-10.28.06-14.89-1.56-.27-.09-1-.5-1.47-.7 0-.63-.2-2-.17-2.15a9.8 9.8 0 0 1 1-2.67c1.44-2.77 3.28-5.21 4.51-8.13 5.44-12.88 5.77-27.56 4.85-41.31-.52-7.74-1.5-15.48-2.44-23.18-.47-3.88-2.55-6.22-6.42-6.9s-8-.24-11.92-.13c-2 .06-4 .13-6 .08a16 16 0 0 1 -2-.3 6 6 0 0 1 -.05-.83c0-1.51.1-3 .23-4.52.25-3.05.67-6.08 1.18-9.1a181.44 181.44 0 0 1 4.33-18.55c4.16-14.7 9.62-29 14.71-43.41 4.27-12.08 8.74-24.4 10.65-37.12a4.45 4.45 0 0 0 -.33-2.37c-.76-2.41-3-4.45-5.19-3.37a2.31 2.31 0 0 0 -1.47 1.05c-4.83 3.75-8.32 9.26-11.58 14.31a145.83 145.83 0 0 0 -11.44 21c-1.8 4.18-3.22 8.49-4.7 12.77-.09-11.56-4.19-23.68-8.9-33.71-2-4.22-4-8.42-6.2-12.56 10.74-20.08 25.68-38.17 44.93-50.57a3.15 3.15 0 0 0 .27-.19c2.36-.71 3.62-4.2 1.09-6.75-18.9-19-25.33-49-15-73.93 10.26-24.51 35.06-45.2 60.26-52.59 24.89-7.29 52 .56 72.93 14.67 23.07 15.57 35.07 41.49 33.38 69.39zm-21.92-70.18q-2-1.73-4.16-3.34a4.42 4.42 0 0 0 .52-.67 17.36 17.36 0 0 0 2.54-8.95 55.43 55.43 0 0 1 15.17-.72 53.29 53.29 0 0 1 9.47 1.71c2.89.8 6.64 1.11 6.57 4.56-.18 9.71-7 19.4-14.2 25.74a81.21 81.21 0 0 0 -15.91-18.33z"
                fill="#fd018f"
                data-original="#000000"
                class=""
            /></g></g></svg>
