<svg xmlns="http://www.w3.org/2000/svg" version="1.1" xmlns:xlink="http://www.w3.org/1999/xlink" xmlns:svgjs="http://svgjs.com/svgjs" width="512" height="512" x="0" y="0" viewBox="0 0 500 500" style="enable-background:new 0 0 512 512" xml:space="preserve" class=""><g><g xmlns="http://www.w3.org/2000/svg" id="圖層_2" data-name="圖層 2"><path d="m102 200-5.07 22c-1.19 5.15 7.09 9.77 8.54 3.51q2.53-11 5.08-21.95c1.17-5.19-7.12-9.81-8.55-3.56z" fill="#fd018f" data-original="#000000" class=""></path><path d="m172.31 244.79a125.69 125.69 0 0 0 7.49-28.52c.72-5.19-7.66-9.86-8.54-3.52a115.54 115.54 0 0 1 -6.82 26.33c-1.86 4.77 5.68 11.32 7.87 5.71z" fill="#fd018f" data-original="#000000" class=""></path><path d="m137.77 269.17a24.06 24.06 0 0 1 -22.8-8.91c-3.66-4.61-8.17 1.36-4.91 5.46a32.37 32.37 0 0 0 30.24 12c4.95-.72 2.02-9.23-2.53-8.55z" fill="#fd018f" data-original="#000000" class=""></path><path d="m496.2 401.87a239.91 239.91 0 0 0 -5.73-44.33 236.15 236.15 0 0 0 -33.89-79.24c34.19-30.59 41.21-82.16 23.45-123.41-14.1-32.75-43.11-63.8-79.19-70.7-30.29-5.78-63.74-1.64-91.5 11.82a108.17 108.17 0 0 0 -40.64 33.53c-6.1 8.46-10.59 17.63-14.49 27.27-4.8 11.88-8.87 24.21-10.71 36.92a89.23 89.23 0 0 0 -11.2-20.21c-12.36-16.52-30.77-27.9-49.7-35.52a121.19 121.19 0 0 0 -12.27-4.14 109.92 109.92 0 0 0 -3-25.29c-1.68-7-3.7-16.82-9.39-21.87-6.28-5.59-13.14-.62-19.12 2.85a238.77 238.77 0 0 0 -24.53 16.45 3.53 3.53 0 0 0 -1.33 2.09 22.13 22.13 0 0 0 -16.23-3.88 21.05 21.05 0 0 0 -15.9 10.79 80.4 80.4 0 0 0 -21-6.23 78.12 78.12 0 0 0 -12.51-.83c-2.9 0-6.82-.31-9.06 2-4.36 4.52.88 14.81 2.28 19.48q3.8 12.67 7.88 25.26a98.4 98.4 0 0 0 -32.77 40.81c-8.5 20-9.46 42.52-.94 62.67 6.9 16.34 19.42 30.36 35.52 37.76a212.47 212.47 0 0 0 -46.5 115.58c-.38 4.55 7.07 8.7 7.54 3.09a205.67 205.67 0 0 1 47-114.6 3.44 3.44 0 0 0 .56-.95c4.42.37 4.51-7 .34-8.24-34.94-10.77-50-50.56-39-83.73 10.27-31.07 36.4-51.79 66.32-61.93a3 3 0 0 0 3-1 138.61 138.61 0 0 1 16.84-4.14c4-.72 8.1-1.27 12.21-1.67a2.39 2.39 0 0 0 2.85-.26c35.26-2.78 72.59 6.46 98.13 31.86 12.36 12.29 20.19 29 23.35 46.7.26 3 .66 5.94 1.18 8.87 1.36 15.35-.73 30.93-6.42 44.5-7.17 17.11-18.15 33.19-35.4 41.26-9.56 4.48-20.28 7.12-30.43 10-4.29 1.2-8.61 2.37-13 3.36-3.58.81-3 5.5-.63 7.59a5.1 5.1 0 0 0 .52 1.09 238.85 238.85 0 0 1 36.31 110.27c.35 4.89 8.06 6.82 7.64 1a249.19 249.19 0 0 0 -36.27-112.57 277.45 277.45 0 0 0 36.88-11.35c17.2-6.78 29.5-21.35 37.64-37.52a102.88 102.88 0 0 0 10.34-33.74c12.7 29.23 38.35 52.41 71.14 57.11a1.64 1.64 0 0 0 -.14.22 538.12 538.12 0 0 0 -52.45 132.28c-1.13 4.53 6.16 8.6 7.54 3.1a530.74 530.74 0 0 1 51.85-130.38 4.31 4.31 0 0 0 -.6-4.68c4.33-.51 2.87-8.2-1.42-8.54-39.72-3.15-69.65-36-75.91-73.77-.06-.5-.11-1-.18-1.51-.15-1.14-.32-2.28-.5-3.42a89.28 89.28 0 0 1 -.52-11.58c.27-12.93 3.47-25.68 7.83-37.8 3.59-10 7.62-19.95 13.21-29a99.71 99.71 0 0 1 34.82-33.42c25.34-14.73 56.32-19.92 85.29-16.79 10.4 1.12 21.44 3.14 30.7 8.24 17.66 9.71 33 25.64 43.45 42.7 12.88 21 19.17 45.62 15.9 70.17-3 22.87-13.65 44.26-30.9 59.59-2.4-.25-4.54 1.68-3.6 4.33a5.53 5.53 0 0 0 3.15 4.94 227.59 227.59 0 0 1 38.44 114.68q.56 10 .22 20.12c-.11 3.55-.34 7.11-.64 10.65-.22 2.51.15 8.71-1.89 10.51-3.42 3 2.09 10 5.88 6.67 4.5-4 3.57-13.63 3.92-19.1.48-7.58.63-15.21.38-22.84zm-446.2-266.29q-1.41-4.64-2.79-9.27c-.51-1.7-3.32-8.46-2.32-9.48 1.34-1.36 7.38-.3 9.28-.17a75.77 75.77 0 0 1 8.89 1.12 71.84 71.84 0 0 1 15.12 4.7 25.52 25.52 0 0 0 2.15 15.36 129.06 129.06 0 0 0 -25.62 12.56c-1.58-4.93-3.15-9.87-4.71-14.82zm37.22 0c-5.08-8.83.3-20.32 10.65-22.6 10.52-2.31 19.87 6.57 17.8 16.89h-.2a149.4 149.4 0 0 0 -28.21 5.69zm36.18-6.33a26 26 0 0 0 -4.77-15.37c5.88-4.46 11.92-8.69 18.18-12.6q4.32-2.69 8.73-5.18c2.61-1.48 6.65-4.94 9.14-2 1.87 2.23 2.61 6.07 3.45 8.77a100.47 100.47 0 0 1 2.71 10.5 98.56 98.56 0 0 1 1.85 18.63 147.53 147.53 0 0 0 -39.25-2.77z" fill="#fd018f" data-original="#000000" class=""></path><path d="m399.22 231c-5.48 10.73-18.94 16-30.2 11.59-5.28-2-5.7 6.35-1.36 8a30.94 30.94 0 0 0 38.5-14.59c2.07-4.06-4.5-9.83-6.94-5z" fill="#fd018f" data-original="#000000" class=""></path><path d="m318.13 189.06c-4.36-5-9.48 1.67-5.57 6.19a205.21 205.21 0 0 1 16.44 21.55c3.48 5.27 10.69 1.42 7.14-4a228 228 0 0 0 -18.01-23.74z" fill="#fd018f" data-original="#000000" class=""></path><path d="m390.25 155.07c-1.35-1.89-4.47-2.44-6.12-.68-1.89 2-.81 5 .55 6.87q7.63 10.68 15.25 21.38c1.36 1.89 4.48 2.43 6.12.68 1.9-2 .81-5-.55-6.87z" fill="#fd018f" data-original="#000000" class=""></path><path d="m235.56 121.1a4 4 0 0 0 2.74.67 3.71 3.71 0 0 0 1.06-.22c12-4.72 21.07-14.2 29.7-23.46 7.82-8.39 15.27-18.52 12.67-30.68-2.24-10.48-12.22-16.9-22.7-15.58-8.72 1.09-14.88 7.3-18.61 14.74-5.13-6.8-12.25-12.25-21-12.78-10.55-.63-19.88 5.78-21.46 16.53-3.51 23.83 20.04 40.15 37.6 50.78zm-18-58.71c9.62-.93 16.63 6.53 20.74 14.33 1.67 3.15 5.86 3.43 6.92-.2 2.23-7.59 7.91-15.23 16.3-16.18 10.52-1.18 15.29 7.85 11.73 17-3.12 8-10.35 14.5-16.28 20.52s-12.39 11.56-20.2 15c-12.76-7.73-28.13-17.5-31.06-33-1.58-8.61 2.64-16.57 11.89-17.47z" fill="#fd018f" data-original="#000000" class=""></path></g></g></svg>
