<svg xmlns="http://www.w3.org/2000/svg" version="1.1" xmlns:xlink="http://www.w3.org/1999/xlink" xmlns:svgjs="http://svgjs.com/svgjs" width="512" height="512" x="0" y="0" viewBox="0 0 500 500" style="enable-background:new 0 0 512 512" xml:space="preserve" class=""><g><g xmlns="http://www.w3.org/2000/svg" id="圖層_2" data-name="圖層 2"><path d="m274.67 191.06v-15.06c0-5.6-8.66-7.73-8.66-1.09v15c-.01 5.66 8.66 7.79 8.66 1.15z" fill="#fd018f" data-original="#000000" class=""></path><path d="m326 191.06v-15.06c0-5.6-8.66-7.73-8.66-1.09v15c.03 5.66 8.66 7.79 8.66 1.15z" fill="#fd018f" data-original="#000000" class=""></path><path d="m149.67 210.53a3.74 3.74 0 0 0 4-4.31 44.23 44.23 0 0 1 -.47-11.43 6.09 6.09 0 0 0 -3.49-6.31 3.6 3.6 0 0 0 -5.05 2.8 53.53 53.53 0 0 0 .35 13.85c.4 2.47 1.99 5.07 4.66 5.4z" fill="#fd018f" data-original="#000000" class=""></path><path d="m195.75 206.09v-15c0-5.6-8.66-7.73-8.66-1.09v15c0 5.6 8.66 7.73 8.66 1.09z" fill="#fd018f" data-original="#000000" class=""></path><path d="m495 317.52a48.8 48.8 0 0 0 -16.35-27.62c-10.31-8.45-23.88-10.31-36.79-10.22-13.78.1-27.35 1.74-40.81-2.09-10.05-2.88-22.65-8.38-25.43-19.59-1.46-7.55-3.93-14-10.51-18.72-1.26-.9-2.6-1.7-4-2.48 18.52-16 30.65-38.95 31.76-63.62 1.16-25.71-10.85-50.78-31.19-66.47-23.68-18.32-53.94-16.71-81.9-10.9-14 2.88-27.22 8.19-37.74 18a72.32 72.32 0 0 0 -19.47 32.39c-.63 2.17-1.15 4.35-1.58 6.53a85.51 85.51 0 0 0 -40.69-20c-1-8.78-3.9-18.18-13.19-21.11-11-3.48-19.89 4.21-26.61 12-5-4-11.71-5.59-17.74-2.88a15.34 15.34 0 0 0 -7.79 7.76 83.91 83.91 0 0 0 -18 1c-4.54.77-11.19 1.3-12.32 6.82-1 4.84 1.61 11.46 3.3 15.88a69.47 69.47 0 0 0 8 15 66.33 66.33 0 0 0 -9 45.25c1 6.35 2.57 13.68 6 19.48-3.49 8.63-4.07 16.79.2 25-2.43 5-6.08 7.83-11.27 10.56-7.24 3.82-14.49 7.48-21.93 10.9-14.44 6.62-27.32 14.85-37.29 27.44a87.27 87.27 0 0 0 -13.33 84.81c10.2 27.06 36.32 54.64 67.67 51.49a43.57 43.57 0 0 0 6.1-1.13 4.54 4.54 0 0 0 .53.3l10.61 4.86c2.67 1.23 6.91 4.26 9.83 4.33 2.21 0 3.06-1.33 4.13-3 3.45-5.25 6.42-10.85 9.38-16.37 2.83-5.3 6.29-10.9 7.89-16.74.64-2.33.66-4.53-1-6.49-2.22-2.58-5.56-4.65-8.06-7a98 98 0 0 0 -7.67-6.59 5.52 5.52 0 0 0 -1-.62 32.7 32.7 0 0 0 -8.6-11c-9.86-8.22-24.52-10.7-32.95-20.56-5.74-6.71-4.11-15.92.7-22.71 3.57-5.05 9.46-10.86 15.81-13.87a232.81 232.81 0 0 1 -10.73 28.49c-1.28 2.81.87 6.26 3.77 6.79a1418.48 1418.48 0 0 0 197.76 22.36c18.63.79 37.28 1.08 55.92.33a3.14 3.14 0 0 0 .92-.17l20.12 11.62c6.12 3.53 12.25 7.77 18.9 10.23 7 2.59 14.16 2.32 21.4 1.22 27.43-4.17 56.81-10 79.05-27.69 18.54-14.67 30.33-37.2 25.19-61.2zm-126.81-59.33a1.63 1.63 0 0 0 .07.3 4.86 4.86 0 0 0 .13.81 27.59 27.59 0 0 0 2.09 5.65c-5.52-1.52-11-3.11-16.53-4.71a74.17 74.17 0 0 0 1.05-17.73 39.1 39.1 0 0 1 6.27 3.33c4.57 3.04 5.99 7.16 6.92 12.35zm-268.41-4.19c-2.65-5.19-2.37-9.92-.51-15.21a107 107 0 0 0 20.28 7 35.71 35.71 0 0 0 1.07 14 116.87 116.87 0 0 1 -20.84-5.79zm28.82 7.05c0-.14-.06-.28-.1-.42a27 27 0 0 1 -1.2-13.22 155.86 155.86 0 0 0 34.3 1.8 78.38 78.38 0 0 1 .29 12.82c-1.12.06-2.25.13-3.37.17a185.79 185.79 0 0 1 -29.92-1.14zm40.48-12.34a291 291 0 0 0 29.85-4.25l4.09-.79q.24 6.9.49 13.8c-11.27 1.71-22.56 3.2-33.92 4.07a88.77 88.77 0 0 0 -.51-12.82zm42 7.6q-.25-7.09-.5-14.18c14.56-3 29.1-6.33 43.71-8.76a46.31 46.31 0 0 1 -.4 15.75 3.91 3.91 0 0 0 -.06 1c-14.31 1.6-28.53 3.97-42.76 6.2zm31.5-30c-2.13.41-4.25.84-6.38 1.27a45.76 45.76 0 0 0 2.9-5.58c1.12 1.49 2.27 2.92 3.47 4.31zm19 5.93c14.22-2.05 28.53-3.1 43-2.06a45.88 45.88 0 0 1 -3.67 18.63 203.74 203.74 0 0 0 -29.25-.3c-3.25.19-6.48.46-9.71.75a56.49 56.49 0 0 0 -.41-17.02zm50.66-1.31c1.26.16 2.52.33 3.78.52a159.47 159.47 0 0 1 31.22 8 66.53 66.53 0 0 1 -1 18.53c-5.8-1.65-11.62-3.25-17.48-4.68a181.62 181.62 0 0 0 -19.4-3.61 54.79 54.79 0 0 0 2.84-18.76zm-84.15-72.93c4.13-24.58 21.16-44.37 45.08-51.45a167.14 167.14 0 0 1 40.32-6.18c13-.51 25.92 1.6 37.34 8.13 19 10.86 32.25 31.22 34.24 53 2.49 27.28-11.23 54.6-32.76 71l-.11.09c-4.07-1.57-8.25-2.87-12.24-4.1a171.89 171.89 0 0 0 -59.16-7.27 247.67 247.67 0 0 0 -29.8 3.5c-16.77-17.65-27-42.1-22.91-66.72zm-64.62-38.55c7 .16 8.59 6.37 9.21 12.18a85.41 85.41 0 0 0 -25.68 1.37 17.43 17.43 0 0 0 -.94-2.39c4.52-5.39 9.94-11.3 17.41-11.12zm-36.35 9.18a10 10 0 0 1 12.8 6.17 84.68 84.68 0 0 0 -18.11 7.84c-2.95-4.71.37-12.06 5.31-13.97zm-31.2 24.27c-1.23-2.8-3.83-8.23-3.54-11.38.35-3.72 8.75-3.78 11.65-4.09a70.8 70.8 0 0 1 9.32-.37 21.51 21.51 0 0 0 2.51 9.41c-.75.52-1.5 1-2.24 1.59a69.78 69.78 0 0 0 -13.31 12.94 55.36 55.36 0 0 1 -4.39-8.1zm-.47 36.1c6.78-28.37 36.44-47 64.23-49.36a77.4 77.4 0 0 1 60.12 22.06c-1.33 18.23 4 36.47 13.63 52.1a42.09 42.09 0 0 1 -9.79 15.64 3.69 3.69 0 0 0 -.65.92c-20.78 4.49-41.54 9.15-62.83 10.29-20.2 1.08-40.59-1.25-59.06-9.68a5 5 0 0 0 -.59-.83c-.14-.16-.31-.38-.41-.5-.21-.31-.42-.63-.6-1-.49-.9-1.36-2.66-1.53-3.08a53.56 53.56 0 0 1 -3-10.08 62.26 62.26 0 0 1 .48-26.48zm22.85 221c.12 0-.41.71-.06.35a1.41 1.41 0 0 0 -.23.35.52.52 0 0 1 .29-.7zm-.9 1.87.15.09c-.09.32-.18.61-.25.8-2.14 5-4.77 9.9-7.37 14.72-2.43 4.5-4.89 9-7.59 13.35l-.2.3a2.12 2.12 0 0 0 -.33-.11c-1.14-1.58-6.25-2.86-8-3.65l-.7-.32a33.28 33.28 0 0 0 17.67-30.82 39.1 39.1 0 0 0 6.62 5.63zm356.09-48.57c-18.34 20.06-45.43 27.43-71.24 32.24-7.74 1.44-15.95 3.6-23.86 3.24-8.61-.39-15.82-5.54-23.05-9.72l-41.48-24c1.41-13 5.54-31 21.94-29 7.84.95 15.68 5.53 22.67 9s14 7 21.42 9.5c12.4 4.15 27.09 5.75 38.95-.9 13.28-7.44 7-21.17-1.1-30.1a60 60 0 0 0 -36.43-19 3.86 3.86 0 0 0 -.86-.19 3.4 3.4 0 0 0 -.78 0c-2.68.05-3.31 2.77-2.51 5.15 2.16 12.53 4.12 25.1 6.25 37.63a89.33 89.33 0 0 1 -9.62-3.53c-8.07-3.46-15.77-7.74-23.81-11.27-7.38-3.24-15.77-6.64-23.89-4.18a4.71 4.71 0 0 0 -1.16-1.37 56.06 56.06 0 0 0 -11-6.93c-2.85-1.34-7-3.55-10.19-2.08s-4.92 6.9-6.33 9.86a142.23 142.23 0 0 0 -5.85 14.35c-2.45 7-6.13 15.62-1 22.34 4 5.3 11.08 6.57 17.34 6.83a4.52 4.52 0 0 0 1-.09l7.51 4.33c-29.15.6-58.39-1.09-87.44-3.21q-49.16-3.58-98-10.62-24.87-3.58-49.61-8.08a253.37 253.37 0 0 0 10.64-30.85 3.09 3.09 0 0 0 .53-2c.48-2.53-1.62-4.83-3.78-5.32a3.56 3.56 0 0 0 -1.3-.18c-7.08.4-13.07 4.95-18.27 9.38-5.6 4.77-10.45 10.18-12.86 17.25-4 11.8.55 23.38 10.17 30.77 8.76 6.73 19.84 9.67 28.5 16.54 11.59 9.19 10.24 26.14-.11 35.87-11.28 10.6-28.54 10.84-42.05 4.82-14-6.22-25.09-18.16-32.2-31.51a78.65 78.65 0 0 1 6.63-83.85c10.6-14.14 24.55-22.25 40.35-29.48a243.13 243.13 0 0 0 21.88-11.15 25.58 25.58 0 0 0 10.43-11.12c32.22 11.95 68 9 101.34 4.18 39.68-5.69 80-15.11 120-6.76 19.67 4.11 38.71 10.72 58.16 15.68 9.38 7.55 22.7 11.39 33.75 12.67 22.51 2.59 51.94-7.29 67.83 14.37 13.9 18.98 7.33 44.25-7.51 60.48zm-167.23-.73c-3.22-.11-8.17-.31-10.08-2.79-2.62-3.39 2.53-13.49 3.88-17 1.8-4.67 3.66-10.93 6.74-14.92 1.44-1.86 1.19-1.7 3.42-.92a31.67 31.67 0 0 1 3.88 1.78 41 41 0 0 1 4.91 3.1c-9.01 6.76-11.62 19.6-12.75 30.74zm84.93-13.57c-2-11.75-3.85-23.53-5.85-35.29a50.2 50.2 0 0 1 17.46 6.93c5.92 3.79 14 10.3 16.1 17.39 2.73 9.27-14.84 11.63-20.58 11.58a48.42 48.42 0 0 1 -7.13-.61z" fill="#fd018f" data-original="#000000" class=""></path><path d="m216.13 104.09a2.41 2.41 0 0 0 2.72-.73c8.9-4.08 18.09-8.77 23.8-17 4.95-7.19 7.14-16.74 3.26-24.92-3.16-6.67-10.12-12.13-17.74-11.91-7 .21-11.66 5.18-15.14 10.75-4.45-4.92-10.21-8.6-17.23-8-8.81.79-13.46 8.51-13.48 16.76-.04 17.96 17.86 31.14 33.81 35.05zm-21.83-42.2c6.53-3.67 13.08 1.94 16.49 7.14 1.51 2.3 5 3.92 6.62.77 2.43-4.63 5.6-10.78 11.38-11.63 6-.89 11.16 4.42 11.45 10.14.73 14.13-14.37 21.94-25.41 27-9.7-2.59-21.37-10-24.21-20-1.3-4.64-.99-10.81 3.68-13.42z" fill="#fd018f" data-original="#000000" class=""></path></g></g></svg>
