<svg xmlns="http://www.w3.org/2000/svg" version="1.1" xmlns:xlink="http://www.w3.org/1999/xlink" xmlns:svgjs="http://svgjs.com/svgjs" width="512" height="512" x="0" y="0" viewBox="0 0 500 500" style="enable-background:new 0 0 512 512" xml:space="preserve" class=""><g><g xmlns="http://www.w3.org/2000/svg" id="圖層_2" data-name="圖層 2"><path d="m486.44 153.1c-13.7-27.3-43.09-41.43-73.07-35.71-32.59 6.23-55.14 33.69-62.2 64.87-7.49-18.5-17.14-37.83-31.7-51.14a5.58 5.58 0 0 0 -2.81-2.45 61.58 61.58 0 0 0 -23.5-12.26c-34.78-9.28-69.71 18-80 50.19-7.47 23.34-4.89 48.28 2.41 71.31l-6.73 2.75c-1.41.58-1.64 2.73-1.25 4 2.17 6.82 5 13.42 7.18 20.22-2.7 1.06-5.37 2.07-8 2.87-8.16 2.49-18 3.93-26-.08-6.43-3.25-12.64-10-13.79-17.3a57.06 57.06 0 0 0 14.91-14.09c8.91-12.33 12.18-27.78 11.23-42.81-1.83-28.91-19.06-55.65-43-71.42-24.28-16-55.19-19.82-82.91-11.31-28.76 8.82-51 30.21-59.48 59.23-4.62 15.78-4.91 32.54 1.16 48 5.21 13.23 13.92 25.71 26.32 32.95a385.59 385.59 0 0 0 -19.96 130.82c.09 4.27 6.73 5.92 6.62.83a376.19 376.19 0 0 1 20.58-131.07 3.91 3.91 0 0 0 -.19-2.83 4.39 4.39 0 0 0 -2.26-2.83c-24.29-11.47-32.71-42.62-27.38-67 5.82-26.65 24.19-47.76 49.31-58.07 23.86-9.79 52.23-9.51 75.52 1.75 22.93 11.08 41 32.36 47.06 57.2 3.74 15.27 2.81 32.24-4.85 46.18-7.91 14.38-22.8 23.05-38.11 27.62-4.18 1.25-1.6 8.52 2.2 7.39a93.14 93.14 0 0 0 17.52-7.15c3 9.75 11.32 18.56 20.73 21.91 15 5.33 29.22-1.64 43.1-6.67 7.41-2.68 16.25-4.52 22.9.93a15.91 15.91 0 0 1 4.52 18.79c-6.33 14.87-24.57 17.35-38.71 18.95a21.21 21.21 0 0 0 -3.35-2.23c-10-5.35-21.41-3-31.57.3l-1 .34a3.22 3.22 0 0 0 -.93-.27c-10.91-1.2-24.72-6.64-30.19-16.88q.54-8.51 1.62-17c.5-4-5.91-7.54-6.53-2.68a282.44 282.44 0 0 0 -2.26 38.34 47.34 47.34 0 0 1 -5.78-2.91c-13.07-7.76-21.51-20.83-27.55-34.43-2-4.5-7.42-1.4-5.46 3 8.86 19.95 23.62 38.53 45.73 43.95 12.17 3 23.05-.31 34.59-4.1 9.19-3 23-6.78 30.8 1.39 8.87 9.26 0 23-8.19 28.94-9.21 6.64-20.74 10.38-31.82 12.3-23.16 4-47.8-.62-67.38-13.8a93.33 93.33 0 0 1 -39-58.42c-.93-4.51-7.29-3.84-6.27 1.1 8.16 39.37 39.29 69.48 77.21 77.7a148.17 148.17 0 0 0 -.1 20c.35 4.22 7 5.91 6.62.83a147.81 147.81 0 0 1 .09-19.63 98.12 98.12 0 0 0 19.59.92c20.59-1.12 52.48-9.34 58.47-32.44a24.82 24.82 0 0 0 -1.69-17.36c2.88-.36 5.8-.79 8.69-1.36q1.41 4.61 2.83 9.21c.51 1.67 2.29 3.57 4.23 3.14q8-1.82 16-3.85c.1.15.19.32.31.47a329.15 329.15 0 0 0 77.61 70.76c.88.58 2.31 1.1 3.29.38a842.51 842.51 0 0 0 87.91-73.3l.55-.53.12-.11c24.8-23.78 50.39-49.25 64.73-81 12.14-26.89 14.19-58.44.71-85.34zm-340.21 156.7q-.07-5.44.07-10.89a47.27 47.27 0 0 0 18.06 11.22 38.72 38.72 0 0 1 -8.47.95 39.9 39.9 0 0 1 -9.66-1.28zm333.82-155.47c11.21 20.9 11.29 45.34 4.32 67.49a19 19 0 0 0 -5-.09l-12.86.47-19.71.72c1-10.81-9.79-20.72-21.24-18-9.78 2.31-14.49 13.12-10.92 20.94l-19.38.75a337.11 337.11 0 0 1 -.4-34.24c.08-2.06-2.26-4.56-4.41-4.11-5 1-11.66-.51-12.06-6.6-.36-5.58 5.57-8.86 10.32-6.51 2.19 1.08 4-1 3.9-3.07q-1-18-2-36a4.19 4.19 0 0 0 -.2-1 65.73 65.73 0 0 1 16.2-8c28.21-9.31 59.15.58 73.44 27.25zm-88.2 165.45c5.85.23 11.7 0 17.56 0q-8.66 8.13-17.56 16zm-2.17-35c-2.37-.66-3.86.66-3.9 3.06q-.25 12.18-.49 24.36c-22.67-.4-45.47-.79-68.07-2.77.09-6.35.13-12.71.17-19.07 6.13 1.51 12.75 1.6 17.63-3 4.15-3.92 5.67-9.94 6.08-15.44.31-4.08.44-9.07-1.35-12.83-3.38-7.12-11.32-8.81-18.57-8.85a21.31 21.31 0 0 0 -1.52-2.22c-.15-4.3-.39-8.59-.45-12.89 8.34-.61 16.59-1.15 25-.42 2.4.21 3.51-2.2 2.88-4.26-2.44-7.95 1.66-17.5 11-17.28s16.14 8.08 9.68 16.24c-1.71 2.17-.14 6.44 2.81 6.59 6.31.34 12.69.81 19 .8.25 6.69-.62 13.38-.76 20.08a4.25 4.25 0 0 0 4.41 4.11c3.78-.51 8.66-1 12 1.36 3.53 2.49 4.51 9.32 4.18 13.34-.9 10.65-11.58 11.31-19.73 9.05zm-108.4 37.22c.79 4.93-3.13 6.47-7.32 6.8s-8.67-.09-11.22-3.63a17.5 17.5 0 0 1 -2.44-5.86c11.17-3.08 22.23-6.56 33.1-10.57 6.65-2.45 15.63-4 14.22-12.87-.91-5.7-3.38-11-5.21-16.51 11-.07 21.85-10.56 21.13-21.83 4.66.07 10.16 1 10.9 6a28.29 28.29 0 0 1 0 6.82c-.37 3.65-1.24 7.66-3.83 10.42-4.18 4.47-10.78 3.17-15.94 1.42-2.33-.79-3.89.77-3.91 3.07-.05 8.61-.08 17.23-.22 25.85-5.1 2.45-10.78 1.91-16.44 1.93-3.65 0-11.07-.56-13.1 3.41-1 2.11 0 3.6.28 5.55zm11.8-82.23c-.3-1.18-.6-2.36-.91-3.53a150 150 0 0 0 20.44-.62c.05 2 .13 4.09.21 6.14-.56-.36-1.13-.71-1.7-1-5.85-3.19-12.12-2.99-18.04-.96zm32.11-92.87c11 14.31 18 31.43 24.27 48.19 1 2.53 5.94 5.15 6.41.79 2.27-21.31 12.16-42.33 28.38-56.15l1.53 27.15c-7.64-.93-14.53 5.59-14 13.9.6 8.94 8.05 14.84 16.33 15.18q-.44 16.69.79 33.35c-4.23 0-8.49-.19-12.73-.45 3.18-10.16-4.15-20.34-15.64-22.8-13.63-2.91-21.83 8.92-20.66 20.9a176.61 176.61 0 0 0 -21.2.58c.13-8.57.25-17.14.14-25.71-.07-5.73-2.37-8.57-7.91-10.6-5-1.85-9.88-5.3-9.16-11.36.65-5.54 7.7-10.85 12.69-6.25 2.2 2 5.53 1.53 5.44-2-.26-10.47-.79-20.9-.31-31.35a83.61 83.61 0 0 1 5.63 6.66zm-82.41-10.5c12.41-10.09 28.64-16.24 44.73-13.9a52.3 52.3 0 0 1 25.71 11.89c-.72 10.41-.4 20.79-.1 31.2a13.33 13.33 0 0 0 -17.31 8.91 17.84 17.84 0 0 0 2.35 15.16c2.32 3.53 7.58 8.49 12.14 8.7 2.12.1 1.47-.78 1.89 1a18.25 18.25 0 0 1 0 3.77v11.05c0 4.64-.09 9.28-.15 13.91a139.51 139.51 0 0 1 -22.11.68c-.45-1.25-.93-2.49-1.51-3.72a3.66 3.66 0 0 0 -4.62-1.9c-4.56 1.69-10.58 3.66-16 4 .71-12.4-10.24-23.6-23.64-21.27s-16.16 15.58-11.88 26.18c-3.67 1-7.26 2.24-10.82 3.56-10.55-34.62-8.77-74.7 21.32-99.19zm13.22 161.18a24.8 24.8 0 0 0 -5.73-34.14c-9.48-7.06-19.68-4.54-29.64-.85-1.82-5.38-3.94-10.65-5.79-16 7.67-3.15 15.3-6.2 23.42-8.09 3-.71 2.37-4.17 1-6.06-4.75-6.71-2.66-16.59 5.81-18.85 9.35-2.48 19.05 5.25 15.49 15.06-.88 2.41.57 5.51 3.26 5.89 6.38.9 13.93-1.12 20.35-3.33 1.63 4.6 2.41 9.45 3.82 14.14.63 2.06 2.85 3.89 5 2.86 4.63-2.2 9.83-3.53 14.77-1.47 3.47 1.43 8.53 5.35 9.08 9.4 1.17 8.57-10.4 18.11-18.4 15.56-2.82-.89-4.31 1.47-3.73 4 1.4 6.21 4.2 12 5.85 18.13.58 2.15 1 2.74-.72 4.08-1.14.88-3.06 1.27-4.37 1.78q-6.39 2.51-12.9 4.73a463.51 463.51 0 0 1 -46.57 13.1c-.58-1.9-1.17-3.8-1.75-5.71 8.59-2.4 16.44-6.5 21.75-14.23zm16.11 38.91c5 .26 10.36-1 13.41-4.31a10.71 10.71 0 0 0 2.89-8.23c-.1-.9-.24-3-.95-3 1.4-.56 4.62-.43 5.64-.48 6.21-.24 12.48.51 18.27-1.32q.3 7 .59 13.94a11.91 11.91 0 0 0 -15.91 10.32c-.88 10 7.65 16.67 16.49 16a71 71 0 0 0 .2 13.9 322.69 322.69 0 0 1 -40.62-36.82zm57.81 49.11q-5-3.33-9.88-6.83a60.84 60.84 0 0 1 -.12-23c.49-2.67-2.34-6.14-5.15-4.75-4.79 2.36-12.91 1.13-12.06-5.79.63-5.19 7.42-7.42 10.69-3.14a3 3 0 0 0 5.44-1.95q-.5-11.64-1-23.3c22.36 1.95 44.92 2.35 67.36 2.75v22q-26.67 23.18-55.27 44.01zm89.26-75.13c-.73.71-1.47 1.4-2.2 2.1-8.35-.45-16.71.11-25.06-.18l.39-19.72c5.27 1.19 10.8 1.59 15.59-1.4a17.63 17.63 0 0 0 8.1-15.27c0-6.3-1.71-14.26-6.61-18.62-3.84-3.43-8.83-4.34-13.8-4.2.36-6.38 1-12.75.32-19.13l28-1.09c3.91-.15 1.89-6.24-.5-7.17-8.84-3.43-.05-13 5.73-13.75 7.57-1.06 13.57 5.55 9.69 12.62-1.49 2.74 1.39 6 4.11 5.88l20.78-.76 9.89-.36c1.22 0 5.52-.69 8.26-.65q-1.2 3.09-2.57 6.08c-13.49 29.51-37.09 53.29-60.11 75.62z" fill="#fd018f" data-original="#000000" class=""></path><path d="m109.66 201.33c1.73.66 4-.21 4.16-2.3a91.4 91.4 0 0 0 -1.56-24.37c-1-4.86-7.81-4.14-6.75 1.19a76.73 76.73 0 0 1 1.27 20.29c-.14 2.08.79 4.4 2.88 5.19z" fill="#fd018f" data-original="#000000" class=""></path><path d="m157.37 194.09a68.73 68.73 0 0 0 -2.93-22.09c-1.41-4.7-8.33-4.07-6.75 1.19a61.73 61.73 0 0 1 2.55 20c-.15 4.62 6.95 6.35 7.13.9z" fill="#fd018f" data-original="#000000" class=""></path><path d="m143.07 216.82a12.47 12.47 0 0 1 -17 .3 2.87 2.87 0 0 0 -4.41.85c-.94 1.9.21 4 1.61 5.21a18.4 18.4 0 0 0 24.93-.59c2.8-2.76-1.99-8.82-5.13-5.77z" fill="#fd018f" data-original="#000000" class=""></path></g></g></svg>
