<svg width="500" height="500" xmlns="http://www.w3.org/2000/svg" version="1.1" xml:space="preserve">
 <g>
  <title>Layer 1</title>
  <g id="svg_1">
   <g id="svg_2" xmlns="http://www.w3.org/2000/svg">
    <path d="m434.6,37.7c-1.7,-9.1 -5.7,-19.2 -12.2,-25.9c-5.5,-5.7 -14.3,-9.1 -22,-6c-7.9,3.2 -9.4,11.5 -12.4,18.5c-2.4,5.4 -6.2,8.5 -12.3,8.3c-5.1,-0.1 -10,-1.6 -15.1,-1.3c-9.8,0.5 -16.9,7.7 -22.9,14.7c-2.9,3.3 -5.8,6.9 -7.9,10.8c-13.9,-33.2 -50.3,-54.1 -86.2,-44.9c-17.9,4.6 -33.9,15.7 -43.5,31.6c-10.2,16.8 -12.5,38 -7.1,56.7c3.6,12.4 11.1,24.2 21.4,32.1c-21.6,5 -39.7,23.1 -50.1,41.9c-4.6,8.3 -8.6,18.2 -7.9,28c0.7,9.9 6.2,18.6 13.6,24.9c8.9,7.6 19.8,12.3 31.2,15.7c-6.2,12.5 -8.4,25.4 -4.8,38.3c-0.2,0.3 -0.3,0.6 -0.3,0.9c-1.6,8.4 -3.5,16.5 -6.9,24.4c-3.1,7 -6.5,15.7 -12.8,20.4c-4,3 -9.1,4.9 -13.7,6.7c-7,2.8 -14.1,5.2 -21.2,7.4c-6.5,2.1 -13.1,4 -19.7,5.8c-5.5,1.5 -12.7,2.3 -16,7.4c-4,6.2 -2.1,16.6 -1.2,23.4c1.2,8.3 3.2,17 6.6,24.7c2.4,5.6 7.6,12 14.5,9.5c7.7,-2.8 8,-11.7 7,-18.7c20.3,-7.6 41.4,-12.8 61,-22.3c8.6,-4.2 17.5,-9.4 24.6,-16c6.7,-6.3 10.9,-14.7 14.6,-23c1.4,1.6 2.9,3.2 4.3,4.8c13,15 20.6,33 27,51.5c3.1,9.3 6,18.6 9.1,27.9c2.7,8 5.1,17.4 9.8,24.5c1.3,1.9 2.8,3.3 4.5,4.4c-16.1,0.2 -32.1,0.5 -48.2,0.6c-48.2,0.5 -96.3,1.3 -144.5,2.2c-3.6,0.1 -7.2,0.1 -10.8,0.2c-0.1,0 -0.2,0 -0.3,0s-0.2,0 -0.4,0c304,3.4 301.4,1.3 297.6,0c-3.7,-1.3 -8.1,-1.2 -11.9,-1.4c-15.8,-0.9 -31.7,-1.3 -47.6,-1.5c4.2,-1 8.2,-2.4 12.1,-4.1c5.8,-2.6 13.3,-7 15.5,-13.4c2.1,-5.9 -1.9,-10.9 -7.7,-12c-3.3,-0.6 -6.7,0 -10.1,0c-6,-0.1 -8.3,-6.7 -10.1,-11.6c-3.9,-10.6 -7.3,-21.4 -11,-32c-7.7,-22.5 -15.3,-45 -23,-67.5c-4.3,-12.6 -9.7,-25.6 -7.9,-39.2c1.6,-11.4 6.7,-22 10.6,-32.7c7.6,-20.6 14.2,-41.7 20.3,-62.8c18.3,15 41,31.2 65.7,23.6c23.3,-7.2 29.8,-33.3 28,-55c-1.7,-21.2 -10.9,-46.5 -28.2,-60.4c2.7,-4 4.6,-8.6 9.1,-11.1c4.7,-2.6 10.4,-2.9 15.7,-2.9c8.6,0.1 18.2,1.2 26,-3.5c8.2,-4.9 9.7,-14 8.1,-22.6zm-102.3,27.9c1.2,-7.4 8,-14.3 13.3,-19.6c3.6,8 7.9,15.7 12.7,23.1c-4.5,-0.9 -8.9,-0.4 -11.5,3.1c-1.6,2.1 -2.5,4.6 -3,7.2c-0.8,-0.1 -1.1,-0.2 -1.7,-0.4c-0.2,-0.1 -0.4,-0.1 -0.6,-0.1c-6.5,-1.5 -10.3,-6.7 -9.2,-13.3zm-6.3,14.2c-0.8,-1.3 -1.3,-2.8 -1.9,-4.3c1.4,-0.6 2.8,-1.2 4.1,-1.9c0.5,1.4 1.3,2.7 2.1,3.8c-1.4,0.8 -2.8,1.6 -4.3,2.4zm15.9,4.7l0.2,0c0.5,0.1 0.9,0.2 1.4,0.3c0.3,7.3 3.1,15.1 5.7,20.7c3.3,7.4 7.7,14.3 10.4,21.9c1.8,5.3 3.5,15 -2.8,18.3c-5.8,3 -16.3,-4.8 -21.3,-7.7c-4.7,-2.7 -9.3,-5.5 -14.1,-8c9.6,-14.1 14.4,-31 13.9,-48.2c1.9,1.3 4.1,2.1 6.6,2.7zm-128.2,266c-7.3,6.7 -16.7,11.9 -25.6,16c-19.4,9 -40.1,14.1 -60,21.7c-0.8,0.3 -1.2,1.5 -1.1,2.3c0.7,3.8 1.6,8.3 -0.1,11.9c-2.3,4.6 -7.2,5.1 -10,0.9c-4.1,-6.1 -5.7,-15.3 -7,-22.4c-0.7,-3.7 -1.1,-7.4 -1.2,-11.1c-0.2,-3.9 -1,-9.8 2,-12.8c3.6,-3.7 11.7,-4.4 16.6,-5.7c11.5,-3.2 23,-6.8 34.1,-11c8.3,-3.1 17.3,-6.2 22.9,-13.4c8.2,-10.4 12.7,-23.9 15.5,-36.9c0.3,0.5 0.5,1 0.8,1.5c7.2,13.5 17.7,24.5 28,35.7c-3.9,8.4 -7.9,17 -14.9,23.3zm154.9,101.3c3.8,0.2 8,0.1 11.6,1.1c-311.2,6.3 -303.6,1.1 -295.3,0.6c41.3,-0.8 82.7,-1.6 124,-2.1c46.1,-0.6 92.2,-1.3 138.3,-0.3c7.2,0.1 14.3,0.3 21.4,0.7zm9.5,-365.2c7.9,8.7 13.6,19.8 17.1,31c6.4,20.3 7.9,51.1 -11.7,65.2c-24.5,17.6 -53.1,-3.2 -72.3,-19c-0.9,-2 -4,-3 -4.8,-0.2c-5.6,19.6 -11.7,39.1 -18.5,58.4c-5.9,16.6 -15.3,33.7 -13.9,51.8c0.8,10.1 4.5,19.8 7.8,29.3c3.5,10.3 7,20.6 10.5,30.9c7.1,20.9 14.3,41.8 21.4,62.8c2.5,7.2 4.7,16.6 10.8,21.7c2.1,1.8 4.5,2.3 7.1,2.4c3.3,0.1 9,-1.5 11.8,0.6c5.5,4.1 -10.3,12.8 -13.3,14.1c-9.4,4 -20,5.8 -30.2,6.2c-5.4,0.2 -11,0 -14,-5.3c-2.3,-4 -3.7,-8.7 -5.3,-13c-3.1,-8.4 -5.8,-17 -8.5,-25.5c-5.3,-16.5 -10.9,-33.3 -19.8,-48.3c-10.3,-17.5 -26.1,-30.7 -38.5,-46.7c-6.9,-8.9 -13.4,-19.1 -14.5,-30.6c-0.9,-10 2.6,-19.4 7.2,-28.1c6.7,1.8 13.5,3.2 20,4.7c12.1,2.7 28.8,3.4 34.1,-10.7c4.7,-12.5 -7.3,-21.9 -17.3,-26.4c-8,-3.6 -16.4,-6.3 -24.8,-8.7c3.6,-13 7.4,-25.8 10.8,-38.8c0.1,0 0.3,-0.1 0.4,-0.1c3.2,-0.9 1.2,-6.5 -1.7,-5.7c-9.7,2.7 -18.5,9.4 -25.7,16.2c-6.5,6.1 -14.6,14.9 -8.2,23.9c3.6,5.1 9.8,6.4 15.5,7.8c8.2,2 16.3,4.5 24.2,7.4c6.6,2.4 14.1,4.9 19.1,10.2c5.7,6 3.8,13.9 -2.9,18.2c-9.9,6.3 -23.8,1.2 -34.4,-1.3c-9.8,-2.3 -19.5,-5.1 -28.7,-9.3c-8.8,-4 -17.8,-9.7 -22.5,-18.5c-4.7,-8.7 -3.3,-18.2 0.3,-27c9.2,-23 31.4,-46.1 57,-49.1c4.5,2.3 9.3,3.9 14.5,4.6c3.5,0.5 2.6,-5.3 -0.4,-5.7c-5.1,-0.7 -9.6,-2.2 -13.7,-4.2c-0.2,-0.1 -0.4,-0.2 -0.6,-0.3c-26.6,-14.1 -32.4,-54.9 -19.2,-80.6c16,-31.2 56.6,-43.9 87.9,-29.1c17.3,8.2 30.7,23.4 36.7,41.6c0.1,0.2 0.2,0.4 0.3,0.6c-0.2,1.2 -0.3,2.5 -0.2,3.8c-2.5,1.3 -5.2,2.3 -7.7,3.6c-1.4,0.7 -1.3,2.6 -0.6,3.8c1.8,3.5 2.7,7.2 5.3,10.2c0.8,0.9 2,1.3 3.1,0.8c1,-0.5 2,-1 3.1,-1.6c-0.2,15.8 -5.3,31.1 -14.6,43.8c-0.1,0.1 -0.2,0.2 -0.3,0.4c-1.3,1.7 -2.6,3.3 -4,4.9c-2,2.3 1.7,6.9 3.9,4.4c1.1,-1.2 2.1,-2.5 3.1,-3.7c9.2,4.7 17.9,10.6 27.3,15.1c8,3.8 16.7,3.7 19.8,-5.9c3,-9.4 -1.4,-19.1 -5.5,-27.4c-5.3,-10.6 -15.4,-25.9 -9.5,-38.3c2.4,-5.2 10.1,-2.7 14.3,-1c5.1,1.9 9.6,5.5 13.4,9.7zm-164.7,115.3c-7.6,-1.7 -20.4,-4.3 -15.1,-13.4c3.4,-5.9 9.2,-10.7 14.6,-14.8c3.2,-2.4 6.6,-4.8 10.2,-6.7c-3.1,11.7 -6.5,23.2 -9.7,34.9zm175.9,-143.2c-3.5,0.7 -7,2 -9.8,4.3c-3.8,3 -5.5,7.5 -8.3,11.3c-1.6,-1 -3.7,-2.1 -6,-3.1c-0.1,-0.4 -0.3,-0.9 -0.6,-1.3c-6.1,-8.6 -11.2,-17.8 -15.4,-27.4c2,-1.7 4.1,-3.1 6.5,-4.1c4.8,-2.1 9.8,-1.3 14.8,-0.7c6.7,0.9 13.9,1.3 18.8,-4.4c2.3,-2.6 3.5,-5.8 4.6,-9.1c4.6,11.8 10.3,23.1 17.1,33.8c-7.3,0.4 -14.6,-0.7 -21.7,0.7zm26.9,-1.2c-0.1,-0.1 -0.1,-0.2 -0.1,-0.3c-7.9,-12.3 -14.4,-25.4 -19.4,-39.1c-0.1,-0.1 -0.1,-0.3 -0.2,-0.4c0.3,-0.6 0.6,-1.1 0.9,-1.7c5.2,-8.4 16.3,-6.5 22.3,-0.1c5.8,6.2 9.7,16.5 10.4,24.8c0.8,9.6 -5.2,15.2 -13.9,16.8z" fill="#fd018f" data-original="#000000" id="svg_3"/>
    <path d="m277.2,47.2c-1,-1.2 -2.8,-1.6 -4,-0.4s-0.6,3.3 0.4,4.4c2.5,3 4.3,6.4 5.6,10c0.5,1.5 1.9,3 3.6,2.7c1.6,-0.3 2.2,-2.2 1.7,-3.6c-1.6,-4.8 -4.1,-9.1 -7.3,-13.1z" fill="#fd018f" data-original="#000000" id="svg_4"/>
    <path d="m303.1,39.2c-1,-1.1 -2.8,-1.6 -4,-0.4s-0.6,3.3 0.4,4.4c1.9,2.2 3.5,4.7 4.6,7.4c0.6,1.4 1.8,3 3.6,2.7c1.5,-0.3 2.3,-2.2 1.7,-3.6c-1.5,-3.9 -3.6,-7.4 -6.3,-10.5z" fill="#fd018f" data-original="#000000" id="svg_5"/>
   </g>
  </g>
 </g>

</svg>