<svg xmlns="http://www.w3.org/2000/svg" width="48" height="48" viewBox="0 -10 310 330">
  <defs>
    <style>
      .duo {
        fill: #fff;
      }

      .top {
        fill: #fcd435;
      }

      .bottom {
        fill: #fd6b62;
      }

      .separator {
        fill: #d3018f;
      }
    </style>
  </defs>

  <path class="duo" d="m97.234 226.98 31.204-146.792h44.332c27.406 0 47.77 25.363 41.847 52.12l-11.496 51.922c-5.527 24.977-27.668 42.75-53.246 42.75h-52.64M230.05-.004H65.293L0 307.172h164.762c51.265 0 101.742-41.629 112.64-92.899l25.801-121.378C314.102 41.625 281.32-.004 230.051-.004"/>

  <path class="top" d="m65.293-.004-10.66 50.152c73.133-4.324 153.387 4.653 159.93 63.336a42.381 42.381 0 0 1 .894 13.383c5.02-40.226-1.426-126.87-150.164-126.87"/>
  <path class="bottom" d="M211.375 146.953S258.551 26.305 54.633 50.145l-18.848 88.671c90.156-58.629 195.684-79.91 175.59 8.137"/>
  <path class="separator" d="M215.457 126.867c.422-4.594.09-9.097-.894-13.383-5.649-50.652-66.204-64.27-129.704-64.27-10.07 0-20.218.34-30.226.934v-.003c12.87-1.504 24.726-2.43 35.676-2.852 4.656-.18 9.129-.266 13.457-.266 90.984 0 110.5 38.461 112.195 67.66.125 2.168.152 4.286.105 6.329-.171 2.039-.379 3.996-.609 5.851"/>
</svg>
