<svg xmlns="http://www.w3.org/2000/svg" width="185" height="41" viewBox="0 0 1852.6 308.04">
  <defs>
    <style>
      .duo {
        fill: #fff;
      }

      .step {
        fill: #fd018f;
      }

      .top {
        fill: #fcd435;
      }

      .bottom {
        fill: #fd6b62;
      }

      .separator {
        fill: #d3018f;
      }
    </style>
  </defs>

  <path class="duo" d="m97.234 226.98 31.204-146.792h44.332c27.406 0 47.77 25.363 41.847 52.12l-11.496 51.922c-5.527 24.977-27.668 42.75-53.246 42.75h-52.64M230.05-.004H65.293L0 307.172h164.762c51.265 0 101.742-41.629 112.64-92.899l25.801-121.378C314.102 41.625 281.32-.004 230.051-.004"/>
  <path class="duo" d="M587.152.438c5.243 0 9.157 4.828 8.067 9.957l-43.465 204.484c-10.93 51.414-61.55 93.16-112.965 93.16h-72.066c-51.414 0-84.286-41.746-73.36-93.16L337.56 6.969a8.244 8.244 0 0 1 8.066-6.532h63.559c5.242 0 9.152 4.829 8.062 9.958l-43.465 204.484c-1.492 7.031 3.004 12.746 10.035 12.746h72.067c7.031 0 13.957-5.715 15.453-12.746l44.191-207.91a8.248 8.248 0 0 1 8.067-6.532h63.558"/>
  <path class="duo" d="M773.512 93.598c1.492-7.035-3.008-12.743-10.035-12.743h-72.508c-7.032 0-13.957 5.707-15.453 12.743l-25.778 121.28c-1.496 7.032 3 12.747 10.032 12.747h72.507c7.032 0 13.957-5.715 15.453-12.746Zm54.636 121.28c-10.93 51.415-61.55 93.161-112.964 93.161H642.68c-51.414 0-84.29-41.746-73.36-93.16l25.782-121.281C606.027 42.184 656.648.438 708.062.438h72.504c51.414 0 84.29 41.746 73.36 93.16l-25.778 121.28"/>

  <path class="top" d="m65.293-.004-10.66 50.152c73.133-4.324 153.387 4.653 159.93 63.336a42.381 42.381 0 0 1 .894 13.383c5.02-40.226-1.426-126.87-150.164-126.87"/>
  <path class="bottom" d="M211.375 146.953S258.551 26.305 54.633 50.145l-18.848 88.671c90.156-58.629 195.684-79.91 175.59 8.137"/>
  <path class="separator" d="M215.457 126.867c.422-4.594.09-9.097-.894-13.383-5.649-50.652-66.204-64.27-129.704-64.27-10.07 0-20.218.34-30.226.934v-.003c12.87-1.504 24.726-2.43 35.676-2.852 4.656-.18 9.129-.266 13.457-.266 90.984 0 110.5 38.461 112.195 67.66.125 2.168.152 4.286.105 6.329-.171 2.039-.379 3.996-.609 5.851"/>

  <path class="step" d="M1085.32-.004h-65.039c-54.926 0-113.738 43.066-108.394 100.633l10.734 110.734c.863 8.352-6.09 16.262-15.32 16.262h-61.434a8.244 8.244 0 0 0-8.066 6.531l-13.586 63.922c-1.09 5.133 2.82 9.961 8.062 9.961h65.844c54.488 0 113.828-43.504 108.399-100.629L995.34 96.672c-.863-8.348 6.531-16.258 15.32-16.258h61.05a8.18 8.18 0 0 0 8-6.48l13.618-64.055c1.082-5.09-2.797-9.883-8.008-9.883"/>
  <path class="step" d="m1307.7 73.934 13.609-64.055c1.082-5.09-2.797-9.883-8-9.883h-194.41a8.174 8.174 0 0 0-8 6.48l-13.618 64.055c-1.082 5.09 2.797 9.883 8 9.883h55.64l-46.26 217.664c-1.09 5.133 2.82 9.961 8.058 9.961h63.562a8.24 8.24 0 0 0 8.059-6.531l47-221.094h58.36a8.187 8.187 0 0 0 8-6.48"/>
  <path class="step" d="M1333.54 80.414h237.03a8.255 8.255 0 0 0 8.07-6.531l13.579-63.926c1.09-5.129-2.82-9.96-8.059-9.96H1347.13a8.249 8.249 0 0 0-8.07 6.53l-13.59 63.926c-1.09 5.129 2.832 9.961 8.07 9.961"/>
  <path class="step" d="m1554.441 187.695 13.59-63.925c1.09-5.13-2.82-9.957-8.062-9.957h-237.04a8.24 8.24 0 0 0-8.058 6.53l-13.59 63.923c-1.09 5.129 2.82 9.96 8.07 9.96h237.028c3.89 0 7.25-2.722 8.062-6.53"/>
  <path class="step" d="M1535.781 227.625h-237.043a8.242 8.242 0 0 0-8.058 6.531l-13.59 63.922c-1.09 5.133 2.82 9.961 8.07 9.961h237.031a8.242 8.242 0 0 0 8.059-6.531l13.59-63.922c1.09-5.133-2.82-9.961-8.059-9.961"/>
  <path class="step" d="m1770.078 93.156-15.316 72.07c-1.492 7.028-8.422 12.743-15.453 12.743h-79.72c-2.62 0-4.577-2.418-4.03-4.98l16.972-79.833c1.489-7.031 8.418-12.742 15.45-12.742h72.07c7.027 0 11.527 5.711 10.027 12.742Zm7.063-93.16h-159.27c-3.86 0-7.2 2.711-8 6.496l-61.36 291.684c-1.07 5.086 2.81 9.863 8.009 9.863h63.66a8.24 8.24 0 0 0 8.058-6.531l8.473-39.86a4.13 4.13 0 0 1 4.039-3.265h81.469c51.41 0 102.031-41.746 112.96-93.156l15.321-72.07c10.93-51.415-21.95-93.16-73.36-93.16"/>
</svg>
